<?xml version="1.0" encoding="utf-8"?>
<!-- Generator: Adobe Illustrator 16.0.0, SVG Export Plug-In . SVG Version: 6.00 Build 0)  -->
<!DOCTYPE svg PUBLIC "-//W3C//DTD SVG 1.1//EN" "http://www.w3.org/Graphics/SVG/1.1/DTD/svg11.dtd">
<svg version="1.1" id="Layer_1" xmlns="http://www.w3.org/2000/svg" xmlns:xlink="http://www.w3.org/1999/xlink" x="0px" y="0px"
   width="191px" height="41px" viewBox="0 0 191 41" enable-background="new 0 0 191 41" xml:space="preserve">
<g>
  <g>
    <g>
      <path fill="#201600" d="M57.583,17.82h1.271c0.108,0,0.196,0.088,0.196,0.197v8.18c0,0.075-0.062,0.137-0.139,0.137h-1.339
        c-0.232,0-0.42,0.189-0.42,0.419v2.854c0,0.243,0.196,0.44,0.438,0.44h7.13c0.26,0,0.47-0.215,0.47-0.474v-2.928
        c0-0.172-0.139-0.312-0.31-0.312h-1.415c-0.096,0-0.172-0.075-0.172-0.169v-8.16c0-0.103,0.082-0.185,0.185-0.185h1.255
        c0.251,0,0.456-0.203,0.456-0.456v-2.815c0-0.242-0.196-0.438-0.438-0.438h-7.17c-0.237,0-0.43,0.191-0.43,0.43v2.85
        C57.152,17.629,57.345,17.82,57.583,17.82z"/>
      <path fill="#201600" d="M78.744,22.711l-6.203-8.39c-0.102-0.132-0.261-0.21-0.428-0.21h-2.925c-0.237,0-0.429,0.191-0.429,0.43
        v15.071c0,0.237,0.195,0.435,0.434,0.435h3.376c0.239,0,0.433-0.197,0.433-0.435v-7.733c0-0.081,0.102-0.115,0.151-0.052
        l6.027,8.015c0.1,0.127,0.251,0.205,0.415,0.205l3.139,0.054c0.217,0,0.396-0.174,0.396-0.39V14.576
        c0-0.257-0.208-0.464-0.464-0.464h-3.311c-0.259,0-0.469,0.21-0.469,0.469v8.083C78.886,22.738,78.791,22.771,78.744,22.711z"/>
      <path fill="#201600" d="M115.881,14.375l-3.227,6.307c-0.035,0.065-0.13,0.065-0.166,0l-3.229-6.313
        c-0.086-0.158-0.25-0.257-0.432-0.257h-4.131c-0.251,0-0.406,0.269-0.281,0.487l6.036,10.816v4.147
        c0,0.267,0.213,0.485,0.479,0.485h3.333c0.236,0,0.429-0.193,0.429-0.431v-4.202l6.048-10.836
        c0.119-0.207-0.031-0.466-0.271-0.466h-4.146C116.138,14.111,115.968,14.212,115.881,14.375z"/>
      <path fill="#201600" d="M135.509,28.6l-0.386-3.178c-0.12-1.493-1.132-2.336-1.978-2.599c-0.05-0.016-0.061-0.073-0.015-0.097
        c0.438-0.249,2.144-1.642,2.144-4.034c0-2.267-1.617-4.582-4.436-4.582h-7.977c-0.184,0-0.335,0.15-0.335,0.335v15.312
        c0,0.156,0.13,0.288,0.288,0.288h3.666c0.16,0,0.291-0.132,0.291-0.296v-5c0-0.099,0.08-0.178,0.177-0.178h2.194
        c0.913,0,1.55,0.686,1.708,1.761c0.233,1.613,0.147,2.858,0.737,3.479c0.067,0.07,0.168,0.103,0.267,0.103h3.969
        c0.155,0,0.23-0.193,0.113-0.295C135.721,29.427,135.568,29.179,135.509,28.6z M126.772,20.89v-2.877
        c0-0.137,0.111-0.25,0.251-0.25h2.467c0.818,0,1.455,0.764,1.455,1.637c0,0.936-0.553,1.713-1.455,1.713h-2.496
        C126.871,21.112,126.772,21.012,126.772,20.89z"/>
      <path fill="#201600" d="M145.345,13.904c-4.516,0-8.175,3.66-8.175,8.174c0,4.513,3.659,8.173,8.175,8.173
        c4.515,0,8.173-3.66,8.173-8.173C153.518,17.563,149.859,13.904,145.345,13.904z M145.345,25.808
        c-2.053,0-3.719-1.669-3.719-3.724c0-2.056,1.666-3.724,3.719-3.724c2.052,0,3.718,1.668,3.718,3.724
        C149.062,24.139,147.396,25.808,145.345,25.808z"/>
      <path fill="#201600" d="M94.573,20.747l-3.968-6.36c-0.107-0.17-0.294-0.275-0.497-0.275h-2.92c-0.229,0-0.417,0.187-0.417,0.415
        v15.053c0,0.259,0.209,0.468,0.467,0.468h3.301c0.264,0,0.476-0.215,0.476-0.478v-7.236c0-0.047,0.058-0.062,0.083-0.025
        l2.602,4.696c0.115,0.174,0.31,0.28,0.519,0.28h0.538h0.579c0.182,0,0.356-0.095,0.457-0.247l2.602-4.694
        c0.03-0.049,0.104-0.027,0.104,0.03v7.2c0,0.259,0.213,0.474,0.474,0.474h3.336c0.24,0,0.436-0.197,0.436-0.435V14.555
        c0-0.245-0.199-0.444-0.443-0.444h-2.84c-0.237,0-0.454,0.122-0.577,0.32l-3.938,6.315
        C94.859,20.884,94.658,20.884,94.573,20.747z"/>
      <path fill="#201600" d="M163.47,13.904c-4.514,0-8.175,3.66-8.175,8.174c0,4.513,3.661,8.173,8.175,8.173
        c4.513,0,8.173-3.66,8.173-8.173C171.643,17.563,167.982,13.904,163.47,13.904z M163.47,25.808c-2.054,0-3.719-1.669-3.719-3.724
        c0-2.056,1.665-3.724,3.719-3.724s3.717,1.668,3.717,3.724C167.187,24.139,165.523,25.808,163.47,25.808z"/>
    </g>
    <path fill="#201600" d="M181.452,20.747l-3.968-6.36c-0.106-0.17-0.295-0.275-0.496-0.275h-2.92c-0.231,0-0.417,0.187-0.417,0.415
      v15.053c0,0.259,0.209,0.468,0.469,0.468h3.299c0.264,0,0.477-0.215,0.477-0.478v-7.236c0-0.047,0.059-0.062,0.083-0.025
      l2.602,4.696c0.114,0.174,0.31,0.28,0.519,0.28h0.538h0.58c0.183,0,0.355-0.095,0.455-0.247l2.603-4.694
      c0.031-0.049,0.104-0.027,0.104,0.03v7.2c0,0.259,0.211,0.474,0.473,0.474h3.337c0.24,0,0.435-0.197,0.435-0.435V14.555
      c0-0.245-0.198-0.444-0.442-0.444h-2.841c-0.235,0-0.453,0.122-0.578,0.32l-3.938,6.315
      C181.738,20.884,181.536,20.884,181.452,20.747z"/>
  </g>
  <g>
    <path fill="#83312D" d="M27.407,32.047c0.001,0.672,0.466,1.335,1.324,1.335c1.556,0,2.609-1.922,2.975-3.594
      C30.047,29.27,27.404,30.228,27.407,32.047z"/>
    <path fill="#83312D" d="M39.996,1.036c-1.582-0.449-8.372,4.892-11.442,8.41c0,0-2.747-1.173-5.925-1.173
      c-3.179,0-5.925,1.173-5.925,1.173c-3.07-3.518-9.861-8.859-11.443-8.41c-1.854,0.524-4.711,11.338-3.5,21.026
      C2.397,27.151,5.959,40.01,22.629,40.01c7.671,0,12.543-2.665,15.644-6.045c-0.923-1.021-2.37-2.344-3.526-2.888
      c-0.833,2.72-2.953,5.138-6.337,5.138c-2.738,0-4.856-1.582-4.819-4.105c0.037-2.449,2.411-4.902,7.068-4.835
      c0.515,0.008,0.993,0.045,1.454,0.094c0.134-0.912,0.223-1.873,0.274-2.842c-0.257,0.267-1.877,1.773-3.903,1.744
      c-1.278-0.018-2.248-0.619-2.595-1.721c-0.062,0.045-1.509,1.582-3.596,1.628c-1.721,0.039-2.805-0.81-2.692-3.424
      c0.091-2.133,0.069-3.564,0.069-3.564c-0.644-0.378-1.742-0.214-2.02,0.953c-0.204,0.847-0.334,3.567-0.083,5.629
      c0,0-1.02,0.322-1.838,0.31c-1.721-0.023-1.933-0.811-1.896-2.048c0.088-2.908,0.113-4.928,0.113-4.928
      c-0.826-0.382-1.782-0.2-2.019,0.953c-0.178,0.868-0.294,3.566-0.083,5.629c0,0-1.034,0.322-1.838,0.312
      c-1.534-0.023-1.943-0.799-1.897-2.05c0.168-4.496,0.347-7.029,0.117-7.875c0.15-0.09,0.998-0.472,1.821-0.459
      c1.399,0.021,2.3,1.295,2.392,1.431c0.81-0.733,1.954-1.368,3.331-1.347c1.485,0.022,2.304,1.287,2.393,1.432
      c2.148-2.025,5.159-1.842,5.114,1.238c0,0-0.04,2.995,0.065,3.992c0.148,1.408,1.964,0.745,2.467,0.301
      c0.232-2.726,0.335-5.326,0.054-6.326c0.151-0.092,0.999-0.473,1.822-0.46c1.457,0.023,2.002,1.152,1.956,1.994
      c-0.129,2.374-0.155,3.719-0.108,4.583c0.028,0.521,0.289,0.923,1.01,0.933c0.737,0.012,1.59-0.445,1.902-0.805
      c0.002-0.243,0.002-0.484,0-0.724c-0.019-2.271-0.196-4.303-0.394-5.431c0.152-0.09,0.998-0.471,1.822-0.46
      c1.458,0.022,1.831,1.175,1.956,1.994c0.494,3.224,0.151,7.001-0.388,10.256c2.018,0.812,3.646,2.323,4.614,3.461
      c2.326-3.532,3.158-7.345,3.442-9.614C44.708,12.375,41.85,1.561,39.996,1.036z"/>
  </g>
</g>
</svg>
